<svg width="658" height="676" viewBox="0 0 658 676" fill="none" xmlns="http://www.w3.org/2000/svg">
<rect x="0.788086" y="0.25" width="657.049" height="675.492" rx="55" fill="url(#paint0_linear_1122_5247)"/>
<path d="M509.422 230.927C507.783 234.45 504.252 236.704 500.366 236.709L255.225 236.971C248.032 236.979 243.184 229.618 246.031 223.013L268.15 171.691L294.725 111.341C296.322 107.713 299.912 105.371 303.877 105.371L552.158 105.371C559.469 105.371 564.309 112.961 561.225 119.59L509.422 230.927Z" fill="white"/>
<path d="M133.301 396.826C128.669 396.826 124.643 393.645 123.572 389.139L91.4916 254.18C90.0119 247.954 94.6786 241.96 101.077 241.868L166.057 240.933L233.071 240.369C237.734 240.329 241.805 243.518 242.884 248.054L275.341 384.504C276.836 390.787 272.071 396.818 265.613 396.818L133.301 396.826Z" fill="white"/>
<path d="M406.82 427.105C413.432 428.111 417.212 435.199 414.363 441.25L331.878 616.47C329.145 622.276 321.728 624.042 316.672 620.09L272.105 585.256L225.843 548.635C222.215 545.762 221.031 540.776 222.981 536.579L279.482 415.009C281.355 410.98 285.662 408.669 290.055 409.338L406.82 427.105Z" fill="white"/>
<rect x="251.758" y="216.348" width="17.7009" height="33.8603" transform="rotate(46.1552 251.758 216.348)" fill="white"/>
<rect x="297.692" y="417.801" width="17.7009" height="43.7157" transform="rotate(146.27 297.692 417.801)" fill="white"/>
<defs>
<linearGradient id="paint0_linear_1122_5247" x1="329.312" y1="0.25" x2="329.313" y2="675.742" gradientUnits="userSpaceOnUse">
<stop stop-color="#2B68A1"/>
<stop offset="0.0001" stop-color="#2492F8"/>
<stop offset="1" stop-color="#9438EF" stop-opacity="0.73"/>
</linearGradient>
</defs>
</svg>
